<?xml version="1.0" encoding="UTF-8"?>
<svg width="40px" height="40px" viewBox="0 0 40 40" version="1.1" xmlns="http://www.w3.org/2000/svg" xmlns:xlink="http://www.w3.org/1999/xlink">
    <title>编组 5</title>
    <g id="页面-1" stroke="none" stroke-width="1" fill="none" fill-rule="evenodd">
        <g id="绑定邮箱" transform="translate(-463.000000, -313.000000)">
            <g id="分组-2" transform="translate(463.000000, 174.000000)">
                <g id="编组-5" transform="translate(0.000000, 139.000000)">
                    <circle id="椭圆形" fill="#5285FE" cx="20" cy="20" r="20"></circle>
                    <g id="编组" transform="translate(11.000000, 14.000000)" fill="#FFFFFF" fill-rule="nonzero">
                        <path d="M8.98242188,6.74344406 L0.616921875,0.0406468531 C0.661921875,0.0312062937 0.702421875,0.0133741259 0.748546875,0.0133741259 L17.2174219,0.0133741259 C17.2455469,0.0133741259 17.3051719,0.0322552448 17.3501719,0.0395979021 L8.98242188,6.74344406 Z M17.9644219,0.96791958 L17.9644219,11.0441434 C17.9644219,11.1070804 17.9441719,11.1616259 17.9284219,11.2193182 L11.9884219,5.50673077 L17.9194219,0.753933566 C17.9430469,0.822115385 17.9644219,0.892395105 17.9644219,0.96791958 Z M0.045421875,0.752884615 L5.97867188,5.50673077 L0.038671875,11.2193182 C0.024046875,11.1626748 0.001546875,11.1070804 0.001546875,11.0441434 L0.001546875,0.96791958 C0.001546875,0.891346154 0.024046875,0.822115385 0.046546875,0.752884615 L0.045421875,0.752884615 Z M11.4101719,6.14344406 L17.3996719,11.9021853 C17.3400469,11.9168706 17.2815469,11.9378497 17.2162969,11.9378497 L0.748546875,11.9378497 C0.685546875,11.9378497 0.627046875,11.9168706 0.568546875,11.9021853 L6.55692188,6.14344406 L8.74279688,7.89519231 C8.87990834,8.00733664 9.08493541,8.00733664 9.22204688,7.89519231 L11.4101719,6.14344406 L11.4101719,6.14344406 Z" id="形状"></path>
                    </g>
                </g>
            </g>
        </g>
    </g>
</svg>