<?xml version="1.0" encoding="UTF-8"?>
<svg width="40px" height="40px" viewBox="0 0 40 40" version="1.1" xmlns="http://www.w3.org/2000/svg" xmlns:xlink="http://www.w3.org/1999/xlink">
    <title>编组 6</title>
    <g id="页面-1" stroke="none" stroke-width="1" fill="none" fill-rule="evenodd">
        <g id="绑定邮箱" transform="translate(-463.000000, -231.000000)">
            <g id="分组-2" transform="translate(463.000000, 174.000000)">
                <g id="编组-6" transform="translate(0.000000, 57.000000)">
                    <circle id="椭圆形备份" fill="#FFB409" cx="20" cy="20" r="20"></circle>
                    <g id="编组" transform="translate(11.000000, 11.000000)" fill="#FFFFFF" fill-rule="nonzero">
                        <path d="M9,8.99871447 C6.51670951,8.99871447 4.50128535,6.98557349 4.50128535,4.49935723 C4.50128535,2.01314098 6.51670951,0 9,0 C11.4832905,0 13.4987147,2.01571204 13.4987147,4.49935723 C13.4987147,6.98300243 11.4832905,8.99871447 9,8.99871447 Z M17.5141388,13.1561206 C17.6580977,13.467219 17.7583548,13.9171547 17.8457584,14.5136409 C17.8894602,14.8170261 17.9280206,15.1384088 17.9588689,15.4623625 C17.9691517,15.5754892 17.9794344,15.6783317 17.9871465,15.7734609 C17.9922879,15.8300243 17.9948586,15.8711613 17.9974293,15.8968719 L18,15.9560063 C18,17.0847022 17.0848329,18 15.9562982,18 L2.0437018,18 C0.915167095,18 0,17.0821311 0,15.9560063 L0.00257069409,15.8968719 C0.00514138817,15.8737323 0.00771208226,15.8325953 0.0128534704,15.7734609 C0.0205655527,15.6783317 0.030848329,15.5754892 0.0411311054,15.4623625 C0.0719794344,15.1409799 0.110539846,14.8170261 0.154241645,14.5136409 C0.241645244,13.9171547 0.341902314,13.467219 0.485861183,13.1561206 C1.11568123,11.790887 5.74293059,9.81631196 9,9.81631196 C12.2570694,9.81631196 16.8843188,11.790887 17.5141388,13.1561206 Z" id="形状"></path>
                    </g>
                </g>
            </g>
        </g>
    </g>
</svg>